<?xml version="1.0" encoding="UTF-8"?>
<svg version="1.1" xmlns="http://www.w3.org/2000/svg" width="1024" height="1024">
<path d="M0 0 C1.16611914 -0.00307895 1.16611914 -0.00307895 2.35579625 -0.0062201 C4.95236038 -0.01185993 7.54887096 -0.0104366 10.1454401 -0.00901413 C12.02938795 -0.0115995 13.91333525 -0.01461314 15.7972818 -0.01801753 C20.96831012 -0.02607066 26.13932455 -0.02787616 31.31035841 -0.028615 C36.89001262 -0.03046851 42.46965967 -0.03801739 48.04930973 -0.04475021 C60.24793453 -0.05832248 72.44655604 -0.06435665 84.64518714 -0.06876087 C92.26571551 -0.07152539 99.88624262 -0.07576315 107.50677013 -0.08026505 C128.615828 -0.0924567 149.72488503 -0.10279129 170.83394623 -0.10614014 C172.19819717 -0.10636177 173.56244811 -0.10658355 174.92669905 -0.10680549 C176.29417235 -0.10702613 177.66164565 -0.10724661 179.02911896 -0.10746694 C181.77232484 -0.10790948 184.51553073 -0.1083566 187.25873661 -0.10880661 C187.93888857 -0.108916 188.61904053 -0.10902539 189.31980315 -0.1091381 C211.3613564 -0.11276671 233.40287672 -0.12868019 255.44441737 -0.15199697 C278.76931774 -0.17662607 302.09419676 -0.19030771 325.41911274 -0.19150805 C338.12533564 -0.19242369 350.83151541 -0.19814776 363.5377264 -0.21632767 C374.35939827 -0.23175687 385.1810137 -0.23683251 396.00269448 -0.22858956 C401.51969961 -0.22469295 407.03659117 -0.22556426 412.55358219 -0.23964691 C417.61389173 -0.25244518 422.67400305 -0.25113661 427.73431254 -0.2390562 C429.5553617 -0.23710941 431.37642519 -0.24012996 433.19745427 -0.24890056 C446.11079877 -0.30710789 459.89374589 -0.17386103 471.91034794 5.13142776 C473.087262 5.61998245 474.26417606 6.10853714 475.47675419 6.61189651 C505.41092254 19.30125886 527.35159859 39.80704279 540.00312138 69.80379105 C542.19929237 75.43842351 543.65957569 81.22003987 544.91034794 87.13142776 C545.10499638 88.00412308 545.29964481 88.87681839 545.50019169 89.77595901 C546.10770354 93.2648128 545.97029859 96.59433952 545.91034794 100.13142776 C546.57034794 100.46142776 547.23034794 100.79142776 547.91034794 101.13142776 C547.58034794 111.03142776 547.25034794 120.93142776 546.91034794 131.13142776 C547.57034794 131.13142776 548.23034794 131.13142776 548.91034794 131.13142776 C548.91034794 133.44142776 548.91034794 135.75142776 548.91034794 138.13142776 C548.58034794 138.13142776 548.25034794 138.13142776 547.91034794 138.13142776 C547.58034794 141.10142776 547.25034794 144.07142776 546.91034794 147.13142776 C547.57034794 147.13142776 548.23034794 147.13142776 548.91034794 147.13142776 C548.74958271 147.6533168 548.58881748 148.17520584 548.42318058 148.7129097 C547.77180492 151.78479647 547.74574567 154.68645958 547.70502567 157.82771683 C547.69017628 158.82345718 547.69017628 158.82345718 547.67502689 159.83931351 C547.64353533 162.02519078 547.61870357 164.21108977 547.59394169 166.39705276 C547.57336148 167.91591825 547.55236473 169.43477814 547.53096867 170.95363235 C547.4758581 174.94514301 547.4264004 178.93670441 547.37812138 182.92830276 C547.32782577 187.00386937 547.27218183 191.07936257 547.21698856 195.15486526 C547.10954177 203.14699064 547.00806707 211.13917756 546.91034794 219.13142776 C547.57034794 219.13142776 548.23034794 219.13142776 548.91034794 219.13142776 C548.91034794 221.44142776 548.91034794 223.75142776 548.91034794 226.13142776 C548.58034794 226.13142776 548.25034794 226.13142776 547.91034794 226.13142776 C547.91256855 227.13045624 547.91478916 228.12948471 547.91707706 229.15878677 C547.9453196 242.33715708 547.96243825 255.51553168 547.97284794 268.69392776 C547.97370396 269.76972847 547.97455997 270.84552917 547.97544193 271.9539299 C548.00107592 308.55729565 547.79186231 345.15510776 547.41034794 381.75642776 C547.39839012 382.90419315 547.3864323 384.05195854 547.37411213 385.2345047 C547.2278601 399.20024165 547.07344083 413.16587759 546.91034794 427.13142776 C547.57034794 427.13142776 548.23034794 427.13142776 548.91034794 427.13142776 C548.91034794 431.75142776 548.91034794 436.37142776 548.91034794 441.13142776 C548.58034794 441.13142776 548.25034794 441.13142776 547.91034794 441.13142776 C547.58034794 444.43142776 547.25034794 447.73142776 546.91034794 451.13142776 C547.57034794 451.13142776 548.23034794 451.13142776 548.91034794 451.13142776 C548.91034794 467.2817656 548.91034794 467.2817656 547.91034794 475.19392776 C547.81495731 475.95254105 547.71956669 476.71115433 547.62128544 477.49275589 C547.38485445 479.37238222 547.147671 481.25191386 546.91034794 483.13142776 C547.57034794 483.13142776 548.23034794 483.13142776 548.91034794 483.13142776 C548.91034794 485.11142776 548.91034794 487.09142776 548.91034794 489.13142776 C548.58034794 489.13142776 548.25034794 489.13142776 547.91034794 489.13142776 C547.58034794 500.35142776 547.25034794 511.57142776 546.91034794 523.13142776 C547.57034794 523.13142776 548.23034794 523.13142776 548.91034794 523.13142776 C548.91034794 525.44142776 548.91034794 527.75142776 548.91034794 530.13142776 C548.58034794 530.13142776 548.25034794 530.13142776 547.91034794 530.13142776 C547.91034794 533.10142776 547.91034794 536.07142776 547.91034794 539.13142776 C548.24034794 539.13142776 548.57034794 539.13142776 548.91034794 539.13142776 C548.91034794 543.75142776 548.91034794 548.37142776 548.91034794 553.13142776 C548.58034794 553.13142776 548.25034794 553.13142776 547.91034794 553.13142776 C547.87594608 553.96053665 547.84154423 554.78964554 547.80609989 555.64387894 C546.59772453 582.73584191 543.72443909 608.00983786 527.60956669 630.67830276 C525.90016118 633.00108087 525.90016118 633.00108087 524.91816044 635.24470901 C523.6635117 637.59352816 522.1438834 638.87498254 520.09784794 640.56892776 C517.7962526 642.51579694 515.60689419 644.43488151 513.47284794 646.56892776 C503.9580305 656.0837452 494.10622687 663.27515404 481.97284794 669.06892776 C481.13125126 669.4710347 480.28965458 669.87314163 479.42255497 670.28743362 C473.29864858 673.13142776 473.29864858 673.13142776 469.91034794 673.13142776 C469.58034794 673.79142776 469.25034794 674.45142776 468.91034794 675.13142776 C466.47358036 675.81746292 466.47358036 675.81746292 463.26581669 676.42049026 C461.53815067 676.7492012 461.53815067 676.7492012 459.77558231 677.08455276 C458.56192997 677.30627151 457.34827763 677.52799026 456.09784794 677.75642776 C454.89579716 677.98588089 453.69374638 678.21533401 452.45526981 678.45174026 C443.49193741 680.13142776 443.49193741 680.13142776 438.91034794 680.13142776 C438.91034794 680.79142776 438.91034794 681.45142776 438.91034794 682.13142776 C436.27034794 681.47142776 433.63034794 680.81142776 430.91034794 680.13142776 C430.91034794 680.79142776 430.91034794 681.45142776 430.91034794 682.13142776 C426.91034794 682.13142776 422.91034794 682.13142776 418.91034794 682.13142776 C417.0443343 682.21318753 415.1784737 682.29844889 413.31269169 682.38533401 C394.1155773 683.20499493 375.10214497 682.94072041 355.91034794 682.13142776 C355.91034794 681.80142776 355.91034794 681.47142776 355.91034794 681.13142776 C354.26034794 680.80142776 352.61034794 680.47142776 350.91034794 680.13142776 C350.91034794 680.79142776 350.91034794 681.45142776 350.91034794 682.13142776 C350.31222294 681.94580276 349.71409794 681.76017776 349.09784794 681.56892776 C346.74626032 680.91049089 346.74626032 680.91049089 343.91034794 682.13142776 C343.91034794 681.47142776 343.91034794 680.81142776 343.91034794 680.13142776 C342.26034794 680.46142776 340.61034794 680.79142776 338.91034794 681.13142776 C338.91034794 681.46142776 338.91034794 681.79142776 338.91034794 682.13142776 C330.57701461 682.13142776 322.24368127 682.13142776 313.91034794 682.13142776 C312.68831669 682.14883011 312.68831669 682.14883011 311.44159794 682.16658401 C309.94112919 682.18011917 309.94112919 682.18011917 308.41034794 682.19392776 C307.41003544 682.20552933 306.40972294 682.21713089 305.37909794 682.22908401 C302.91034794 682.13142776 302.91034794 682.13142776 301.91034794 681.13142776 C300.03712846 680.97088962 300.03712846 680.97088962 297.91034794 681.00642776 C296.82753544 681.00256058 296.82753544 681.00256058 295.72284794 680.99861526 C293.88945379 680.934475 293.88945379 680.934475 292.91034794 682.13142776 C290.41034794 682.25642776 290.41034794 682.25642776 287.91034794 682.13142776 C287.58034794 681.80142776 287.25034794 681.47142776 286.91034794 681.13142776 C284.89070595 681.05898723 282.8686767 681.04765588 280.84784794 681.06892776 C279.19075809 681.08246292 279.19075809 681.08246292 277.50019169 681.09627151 C276.64554325 681.10787308 275.79089481 681.11947464 274.91034794 681.13142776 C274.91034794 681.46142776 274.91034794 681.79142776 274.91034794 682.13142776 C272.91080048 682.17397133 270.90993158 682.17223559 268.91034794 682.13142776 C268.58034794 681.80142776 268.25034794 681.47142776 267.91034794 681.13142776 C267.91034794 681.46142776 267.91034794 681.79142776 267.91034794 682.13142776 C254.57701461 682.13142776 241.24368127 682.13142776 227.91034794 682.13142776 C227.91034794 681.80142776 227.91034794 681.47142776 227.91034794 681.13142776 C226.26034794 680.80142776 224.61034794 680.47142776 222.91034794 680.13142776 C222.58034794 680.79142776 222.25034794 681.45142776 221.91034794 682.13142776 C221.91034794 681.47142776 221.91034794 680.81142776 221.91034794 680.13142776 C217.56850591 680.31607143 217.56850591 680.31607143 213.91034794 682.13142776 C212.45367105 682.20397143 210.99367544 682.21516554 209.53534794 682.19392776 C208.34812138 682.18039261 208.34812138 682.18039261 207.13691044 682.16658401 C206.40214481 682.15498245 205.66737919 682.14338089 204.91034794 682.13142776 C203.92034794 682.13142776 202.93034794 682.13142776 201.91034794 682.13142776 C192.24368127 682.13142776 182.57701461 682.13142776 172.91034794 682.13142776 C172.91034794 681.80142776 172.91034794 681.47142776 172.91034794 681.13142776 C170.93034794 681.13142776 168.95034794 681.13142776 166.91034794 681.13142776 C166.91034794 681.46142776 166.91034794 681.79142776 166.91034794 682.13142776 C163.28034794 682.13142776 159.65034794 682.13142776 155.91034794 682.13142776 C155.91034794 681.80142776 155.91034794 681.47142776 155.91034794 681.13142776 C154.30627466 681.1043421 152.70206944 681.08499293 151.09784794 681.06892776 C150.20452763 681.0573262 149.31120731 681.04572464 148.39081669 681.03377151 C145.77621003 681.0213281 145.77621003 681.0213281 142.91034794 682.13142776 C141.22410298 682.19975211 139.5353283 682.21629496 137.84784794 682.19392776 C136.96999638 682.18490433 136.09214481 682.17588089 135.18769169 682.16658401 C134.06040653 682.14918167 134.06040653 682.14918167 132.91034794 682.13142776 C132.25034794 682.13142776 131.59034794 682.13142776 130.91034794 682.13142776 C117.91034794 682.13142776 104.91034794 682.13142776 91.91034794 682.13142776 C91.91034794 681.80142776 91.91034794 681.47142776 91.91034794 681.13142776 C90.26034794 681.13142776 88.61034794 681.13142776 86.91034794 681.13142776 C86.91034794 681.46142776 86.91034794 681.79142776 86.91034794 682.13142776 C80.97034794 682.13142776 75.03034794 682.13142776 68.91034794 682.13142776 C68.91034794 681.47142776 68.91034794 680.81142776 68.91034794 680.13142776 C64.29034794 680.13142776 59.67034794 680.13142776 54.91034794 680.13142776 C54.91034794 680.79142776 54.91034794 681.45142776 54.91034794 682.13142776 C53.92034794 681.80142776 52.93034794 681.47142776 51.91034794 681.13142776 C49.52775176 681.03552316 47.14252887 681.00068504 44.75800419 680.99861526 C44.06146229 680.99765854 43.36492039 680.99670181 42.64727116 680.99571609 C41.17547357 680.99503627 39.70367295 680.99687681 38.23188114 681.00105667 C35.98466049 681.00639968 33.73764044 681.00110923 31.49042606 680.99470901 C30.058785 680.99536999 28.62714406 680.99665155 27.19550419 680.99861526 C25.24462894 681.00030716 25.24462894 681.00030716 23.25434208 681.00203323 C20.07092222 681.00635163 20.07092222 681.00635163 17.70502567 681.70222855 C15.45441799 682.24046393 14.11511528 681.76996548 11.91034794 681.13142776 C10.47441402 680.98111054 9.03483576 680.86329838 7.59394169 680.77205276 C-8.33086369 679.61212996 -23.27255332 676.77426454 -37.83965206 670.04939651 C-40.14759543 668.94254957 -40.14759543 668.94254957 -43.08965206 669.13142776 C-44.10515311 668.14717291 -45.10087436 667.14252551 -46.08965206 666.13142776 C-48.30243593 664.6553013 -50.52053068 663.22410625 -52.77715206 661.81892776 C-57.55419838 658.80340188 -62.18319316 655.7103956 -66.63652706 652.22517776 C-68.11628617 651.04287085 -68.11628617 651.04287085 -70.08965206 650.13142776 C-71.51917257 648.49769004 -72.94241977 646.85799648 -74.33183956 645.19002151 C-75.48722947 643.83693156 -76.67985769 642.51462489 -77.90996456 641.22908401 C-92.52124183 625.81921467 -100.559417 606.57116129 -105.08965206 586.13142776 C-105.43146063 584.90924012 -105.77326919 583.68705248 -106.12543559 582.42782885 C-107.19974947 578.12852144 -107.36900523 574.08516539 -107.34133434 569.67026043 C-107.34424122 568.85270748 -107.34714811 568.03515453 -107.35014307 567.19282725 C-107.35742825 564.4597555 -107.35050663 561.72690929 -107.34361935 558.99383926 C-107.34592436 557.01201833 -107.34910115 555.03019825 -107.35307384 553.04837996 C-107.36142483 547.60719036 -107.35729515 542.1660709 -107.3511014 536.72488105 C-107.34657922 530.85502578 -107.3535595 524.98518262 -107.35906124 519.11532974 C-107.3679592 507.61841556 -107.36603148 496.12152747 -107.36023596 484.62461226 C-107.35572129 475.28227873 -107.35505284 465.93995066 -107.35728359 456.5976162 C-107.35743636 455.93373553 -107.35758913 455.26985487 -107.35774653 454.58585661 C-107.35836921 451.8909311 -107.35900601 449.19600559 -107.35966606 446.5010801 C-107.36578323 421.22392242 -107.36023832 395.94677898 -107.34947227 370.66962351 C-107.33998005 348.21246665 -107.34083133 325.75533247 -107.35039425 303.29817581 C-107.36110311 278.06561468 -107.36535049 252.83306612 -107.35916972 227.60050303 C-107.35852829 224.91080988 -107.35790261 222.22111672 -107.35728359 219.53142357 C-107.35712544 218.8691553 -107.35696728 218.20688704 -107.35680434 217.52455003 C-107.35452934 207.52338275 -107.35720245 197.52222469 -107.3622427 187.52105904 C-107.36784723 176.15013977 -107.36634404 164.77924813 -107.35568121 153.40833204 C-107.35041892 147.60500517 -107.3483773 141.80172438 -107.35497952 135.99839783 C-107.36092941 130.6882215 -107.35767967 125.37813406 -107.34702441 120.06796581 C-107.34478633 118.14481003 -107.34593578 116.22164676 -107.35077599 114.29849576 C-107.35684367 111.68780787 -107.35063335 109.07742582 -107.34133434 106.46675396 C-107.34601668 105.71734402 -107.35069901 104.96793409 -107.35552323 104.19581476 C-107.3221689 99.52130431 -106.54181062 95.56473656 -105.08965206 91.13142776 C-104.21677303 87.92800941 -103.37249175 84.71721351 -102.52715206 81.50642776 C-102.30607784 80.67369339 -102.08500362 79.84095901 -101.85723019 78.98299026 C-100.82051134 75.0490964 -99.81720887 71.13707762 -99.08965206 67.13142776 C-98.42965206 67.13142776 -97.76965206 67.13142776 -97.08965206 67.13142776 C-96.820238 66.25486526 -96.55082394 65.37830276 -96.27324581 64.47517776 C-87.79211579 40.51528569 -65.33150693 21.05568285 -43.08965206 10.13142776 C-29.30923005 3.73031464 -15.25095744 -0.03806682 0 0 Z M180.91034794 124.13142776 C180.66160419 124.85162094 180.41286045 125.57181412 180.15657902 126.31383133 C179.00341132 129.6516489 177.84946074 132.98919534 176.69550419 136.32674026 C176.10896061 138.02503983 176.10896061 138.02503983 175.51056767 139.75764847 C169.85276274 156.11665416 164.00483036 172.40616516 158.07050419 188.66658401 C156.68364411 192.46731372 155.2968652 196.26807298 153.91034794 200.06892776 C153.56167667 201.0246669 153.21300541 201.98040604 152.85376835 202.96510696 C148.30016216 215.45589621 143.8468096 227.97059477 139.55561161 240.55427933 C136.37803609 249.84633043 133.06985865 259.08694126 129.72284794 268.31892776 C129.45135929 269.06788315 129.17987064 269.81683853 128.90015507 270.58848953 C128.48971958 271.72071442 128.48971958 271.72071442 128.07099247 272.87581253 C127.50959919 274.42454746 126.94823886 275.97329433 126.38691044 277.52205276 C125.96298512 278.69162773 125.96298512 278.69162773 125.53049564 279.88483047 C122.19203974 289.10299803 118.89320573 298.33528233 115.59784794 307.56892776 C115.28865421 308.43514755 114.97946049 309.30136734 114.66089725 310.19383621 C108.94255535 326.2168712 103.24445339 342.24710233 97.54657841 358.27742386 C90.04727766 379.37566651 82.52104677 400.46343481 74.90418339 421.51955032 C70.03129205 434.99242565 65.20740018 448.48246872 60.40042973 461.97899246 C57.07485702 471.31499699 53.734978 480.64497262 50.32831669 489.95174026 C50.04659107 490.72212128 49.76486546 491.49250229 49.4746027 492.28622818 C48.155576 495.89111388 46.8322932 499.49434439 45.50190067 503.09505081 C45.03638154 504.36364809 44.57096204 505.63228193 44.10566044 506.90095901 C43.70363407 507.98997513 43.3016077 509.07899124 42.88739872 510.20100784 C42.00610005 512.84424322 41.3817333 515.38908157 40.91034794 518.13142776 C41.48067753 518.13142776 42.05100712 518.13142776 42.63861942 518.13142776 C66.06252893 518.13142776 89.48643843 518.13142776 112.91034794 518.13142776 C116.80999629 508.97184301 119.8612002 499.5342922 122.98847294 490.09236526 C123.56541884 488.35779068 124.14263274 486.62330521 124.72010136 484.88890457 C126.22860801 480.35580129 127.73350504 475.82150791 129.23761845 471.28694534 C130.77736467 466.64713328 132.32057012 462.00847214 133.86347294 457.36970901 C136.88245841 448.29139637 139.89762655 439.21182096 142.91034794 430.13142776 C143.7578159 430.13586899 144.60528385 430.14031021 145.47843266 430.14488602 C153.45394746 430.18491294 161.42942867 430.21538676 169.40502071 430.23505211 C173.50563551 430.24550203 177.60616752 430.25968313 181.70673466 430.28230667 C185.66190374 430.30399217 189.61699305 430.31598728 193.57221699 430.32118225 C195.0833458 430.32488576 196.5944701 430.33211751 198.10556507 430.34288788 C200.21751026 430.35734599 202.32912318 430.35940813 204.44110966 430.35847855 C205.64468113 430.36291977 206.8482526 430.36736099 208.08829594 430.3719368 C211.04626211 430.42518514 211.04626211 430.42518514 212.91034794 428.13142776 C212.91034794 428.79142776 212.91034794 429.45142776 212.91034794 430.13142776 C214.00347294 430.13142776 215.09659794 430.13142776 216.22284794 430.13142776 C252.91034794 430.13142776 252.91034794 430.13142776 256.31269169 430.14729691 C260.31235813 430.16529091 264.31202022 430.17684357 268.31171513 430.18635941 C270.04414314 430.191405 271.77656687 430.19824096 273.50898075 430.20686722 C275.99694717 430.21894243 278.48485766 430.22465738 280.97284794 430.22908401 C281.75200565 430.2342453 282.53116337 430.23940659 283.33393192 430.24472427 C285.19312085 430.24492001 287.05219309 430.19342848 288.91034794 430.13142776 C289.24034794 429.80142776 289.57034794 429.47142776 289.91034794 429.13142776 C290.90034794 429.46142776 291.89034794 429.79142776 292.91034794 430.13142776 C294.30474458 430.19808152 295.70204669 430.21680975 297.09784794 430.19392776 C298.98503544 430.16299026 298.98503544 430.16299026 300.91034794 430.13142776 C301.07520191 430.77022873 301.24005589 431.40902969 301.40990543 432.06718826 C303.42001723 439.66294565 305.82849946 447.08059627 308.36737919 454.51424026 C308.79738042 455.7805 309.22711805 457.04684929 309.65660954 458.31328201 C310.55307927 460.95451857 311.45165776 463.59502386 312.35199833 466.23494339 C313.71194156 470.22255304 315.06621948 474.21207361 316.42011356 478.20174026 C318.13820354 483.26410656 319.86748117 488.32248055 321.60419559 493.37849808 C323.01660121 497.49300656 324.40145817 501.61369165 325.74384403 505.75154495 C326.01178272 506.55937424 326.27972141 507.36720352 326.55577946 508.19951248 C327.03174522 509.63559057 327.4956536 511.07575306 327.94423771 512.52061844 C328.58710453 514.55938968 328.58710453 514.55938968 329.91034794 517.13142776 C333.41454961 518.54683005 337.15606835 518.25155947 340.88202763 518.24495316 C341.92165905 518.2451722 341.92165905 518.2451722 342.98229313 518.24539566 C345.26563527 518.24470083 347.54889511 518.23692861 349.83222294 518.22908401 C351.41834309 518.22721831 353.00446382 518.22579512 354.59058475 518.2247963 C358.75970909 518.22098315 362.92879844 518.21116313 367.09790897 518.20009232 C371.35439423 518.18985234 375.61088516 518.18529313 379.86737919 518.18025589 C388.21505147 518.16953978 396.56269535 518.1524778 404.91034794 518.13142776 C406.01927789 514.80463792 405.87272629 514.32324699 404.70136356 511.20296097 C404.40882191 510.40993576 404.11628025 509.61691055 403.8148737 508.79985428 C403.3207272 507.50411987 403.3207272 507.50411987 402.81659794 506.18220901 C402.47818378 505.27294662 402.13976963 504.36368423 401.7911005 503.42686844 C400.67295205 500.42919276 399.54174804 497.43662432 398.41034794 494.44392776 C397.63601536 492.37595427 396.86250398 490.30767311 396.0897913 488.23909378 C394.49729679 483.98083876 392.89932272 479.72470256 391.29657841 475.47029495 C389.02365991 469.43660379 386.76409987 463.39798825 384.50800419 457.35799026 C381.93998815 450.48765842 379.36939617 443.6183099 376.78925419 436.75252151 C376.52540424 436.04934799 376.2615543 435.34617447 375.9897089 434.62169266 C374.97012925 431.91140177 373.94069568 429.20723337 372.8644495 426.51887894 C371.77826843 423.80092483 370.76878545 421.06087182 369.76581669 418.31111526 C369.34332645 417.15498734 368.92083622 415.99885941 368.48554325 414.8076973 C368.14794987 413.8827446 368.14794987 413.8827446 367.80353642 412.93910599 C358.57432366 387.66294079 349.16615789 362.45325412 339.72284794 337.25642776 C339.39466068 336.3803688 339.06647343 335.50430984 338.7283411 334.60170364 C337.7961682 332.11397236 336.86317812 329.62654929 335.92987919 327.13924026 C335.65338032 326.40125198 335.37688145 325.6632637 335.09200382 324.90291214 C334.05056172 322.12989543 333.00282342 319.36169015 331.89887333 316.61287308 C330.55542037 313.24047103 329.31797352 309.83060395 328.07441044 306.42049026 C327.50500715 304.86492424 326.93541917 303.30942581 326.3656702 301.75398636 C326.06734287 300.93919815 325.76901554 300.12440994 325.46164799 299.28493118 C320.58630123 285.97679096 315.63288677 272.70689462 310.47284794 259.50642776 C307.05223219 250.7498597 303.7312849 241.97869924 300.68622684 233.0835762 C297.87762018 224.92359142 294.86252265 216.84185853 291.84784794 208.75642776 C291.57178715 208.01582108 291.29572636 207.27521439 291.01130009 206.51216507 C290.59346256 205.39122452 290.59346256 205.39122452 290.16718388 204.2476387 C289.59458277 202.7115096 289.02199174 201.17537675 288.44941044 199.63924026 C288.01658756 198.47829849 288.01658756 198.47829849 287.57502079 197.29390335 C284.56722482 189.22082753 281.58868756 181.13704241 278.61359501 173.05186844 C277.7295893 170.64974617 276.84497443 168.24784914 275.96015263 165.84602737 C273.49693192 159.15927188 271.03472454 152.47215863 268.57967472 145.78239822 C267.86299502 143.83067211 267.14512171 141.87939022 266.42670536 139.92830276 C265.56267274 137.58146127 264.70074039 135.23384508 263.84125614 132.88533401 C263.46573612 131.86697464 263.0902161 130.84861526 262.70331669 129.79939651 C262.37871464 128.91534134 262.05411259 128.03128616 261.71967411 127.12044144 C261.07458316 125.16617649 261.07458316 125.16617649 259.91034794 124.13142776 C257.44590737 124.03642228 255.00960167 124.00584791 252.54486942 124.01790237 C251.38885227 124.01768333 251.38885227 124.01768333 250.20948124 124.01745987 C247.65010655 124.01815917 245.09080373 124.02595231 242.53144169 124.03377151 C240.76167179 124.03563564 238.99190137 124.03705957 237.22213078 124.03805923 C232.55483428 124.04188488 227.88756871 124.05171556 223.22028446 124.06276321 C218.46137758 124.07297633 213.70246573 124.07755664 208.94355106 124.08259964 C199.59913641 124.09333779 190.25474474 124.11041477 180.91034794 124.13142776 Z M546.91034794 452.13142776 C546.91034794 455.43142776 546.91034794 458.73142776 546.91034794 462.13142776 C547.24034794 462.13142776 547.57034794 462.13142776 547.91034794 462.13142776 C547.91034794 458.83142776 547.91034794 455.53142776 547.91034794 452.13142776 C547.58034794 452.13142776 547.25034794 452.13142776 546.91034794 452.13142776 Z M134.91034794 680.13142776 C134.91034794 680.46142776 134.91034794 680.79142776 134.91034794 681.13142776 C137.22034794 681.13142776 139.53034794 681.13142776 141.91034794 681.13142776 C141.91034794 680.80142776 141.91034794 680.47142776 141.91034794 680.13142776 C139.60034794 680.13142776 137.29034794 680.13142776 134.91034794 680.13142776 Z M184.91034794 680.13142776 C188.91034794 681.13142776 188.91034794 681.13142776 188.91034794 681.13142776 Z M240.91034794 680.13142776 C240.91034794 680.46142776 240.91034794 680.79142776 240.91034794 681.13142776 C242.56034794 681.13142776 244.21034794 681.13142776 245.91034794 681.13142776 C245.91034794 680.80142776 245.91034794 680.47142776 245.91034794 680.13142776 C244.26034794 680.13142776 242.61034794 680.13142776 240.91034794 680.13142776 Z M376.91034794 680.13142776 C380.91034794 681.13142776 380.91034794 681.13142776 380.91034794 681.13142776 Z M383.91034794 680.13142776 C383.91034794 680.46142776 383.91034794 680.79142776 383.91034794 681.13142776 C385.56034794 681.13142776 387.21034794 681.13142776 388.91034794 681.13142776 C388.91034794 680.80142776 388.91034794 680.47142776 388.91034794 680.13142776 C387.26034794 680.13142776 385.61034794 680.13142776 383.91034794 680.13142776 Z M392.91034794 680.13142776 C396.91034794 681.13142776 396.91034794 681.13142776 396.91034794 681.13142776 Z M407.91034794 680.13142776 C407.91034794 680.46142776 407.91034794 680.79142776 407.91034794 681.13142776 C409.56034794 681.13142776 411.21034794 681.13142776 412.91034794 681.13142776 C412.91034794 680.80142776 412.91034794 680.47142776 412.91034794 680.13142776 C411.26034794 680.13142776 409.61034794 680.13142776 407.91034794 680.13142776 Z M420.91034794 680.13142776 C420.91034794 680.46142776 420.91034794 680.79142776 420.91034794 681.13142776 C423.55034794 681.13142776 426.19034794 681.13142776 428.91034794 681.13142776 C428.91034794 680.80142776 428.91034794 680.47142776 428.91034794 680.13142776 C426.27034794 680.13142776 423.63034794 680.13142776 420.91034794 680.13142776 Z " fill="#358BFD" transform="translate(291.0896520614624,172.86857223510742)"/>
<path d="M0 0 C0.66 0 1.32 0 2 0 C2.20409485 0.58944901 2.4081897 1.17889801 2.61846924 1.78620911 C4.75911511 7.96809548 6.90095288 14.14956798 9.04345703 20.33081055 C9.84095816 22.63213869 10.63816392 24.93356921 11.43505859 27.23510742 C12.58612071 30.55935752 13.73827441 33.88322762 14.890625 37.20703125 C15.41743866 38.72959282 15.41743866 38.72959282 15.95489502 40.28291321 C17.98173443 46.12521808 20.07345923 51.93425414 22.26947021 57.71537781 C23 60 23 60 23 63 C23.66 63.33 24.32 63.66 25 64 C25.73181152 66.14300537 25.73181152 66.14300537 26.41210938 68.92089844 C27.83954632 74.4660107 29.54822132 79.85183175 31.40625 85.265625 C31.8882209 86.68213348 31.8882209 86.68213348 32.37992859 88.1272583 C33.41638104 91.16940458 34.45796202 94.2097629 35.5 97.25 C36.22053782 99.35999912 36.94099619 101.47002538 37.66137695 103.58007812 C42.17074297 116.76706142 46.74810606 129.92825106 51.4609375 143.04394531 C54.43516505 151.32894973 57.21394231 159.64182692 60 168 C22.05 168 -15.9 168 -55 168 C-53.77792442 162.5006599 -52.64007397 157.54606038 -50.88148499 152.28369141 C-50.67771522 151.66981882 -50.47394544 151.05594624 -50.26400083 150.42347145 C-49.59048959 148.3980566 -48.91063427 146.37483359 -48.23071289 144.3515625 C-47.74229385 142.88715295 -47.25427274 141.42261063 -46.76661682 139.95794678 C-45.44828783 136.00210284 -44.12443488 132.04812779 -42.7995522 128.09447479 C-41.40970721 123.9437867 -40.02501275 119.79138103 -38.63975525 115.63916016 C-36.01559989 107.77600262 -33.38686467 99.91438427 -30.75645775 92.05331612 C-27.77315706 83.13688298 -24.79492864 74.21875851 -21.81715024 65.30047989 C-16.72342177 50.04533162 -11.62600046 34.79142163 -6.52410889 19.53900146 C-4.34598452 13.02713767 -2.16975054 6.51465942 0 0 Z " fill="#358BFD" transform="translate(511,369)"/>
<path d="M0 0 C-4.79344392 1.79943163 -9.32686455 2.56815323 -14.375 3.125 C-15.11105469 3.21136719 -15.84710937 3.29773438 -16.60546875 3.38671875 C-18.40299182 3.59681885 -20.20141342 3.79920767 -22 4 C-22 4.66 -22 5.32 -22 6 C-25.96 5.01 -25.96 5.01 -30 4 C-30 4.66 -30 5.32 -30 6 C-34 6 -38 6 -42 6 C-43.86601363 6.08175976 -45.73187424 6.16702112 -47.59765625 6.25390625 C-66.79477063 7.07356717 -85.80820297 6.80929265 -105 6 C-105 5.67 -105 5.34 -105 5 C-106.65 4.67 -108.3 4.34 -110 4 C-110 4.66 -110 5.32 -110 6 C-110.598125 5.814375 -111.19625 5.62875 -111.8125 5.4375 C-114.16408762 4.77906313 -114.16408762 4.77906313 -117 6 C-117 5.34 -117 4.68 -117 4 C-118.65 4.33 -120.3 4.66 -122 5 C-122 5.33 -122 5.66 -122 6 C-130.33333333 6 -138.66666667 6 -147 6 C-148.22203125 6.01740234 -148.22203125 6.01740234 -149.46875 6.03515625 C-150.96921875 6.04869141 -150.96921875 6.04869141 -152.5 6.0625 C-153.5003125 6.07410156 -154.500625 6.08570313 -155.53125 6.09765625 C-158 6 -158 6 -159 5 C-160.87321948 4.83946185 -160.87321948 4.83946185 -163 4.875 C-163.721875 4.87242187 -164.44375 4.86984375 -165.1875 4.8671875 C-167.02089415 4.80304724 -167.02089415 4.80304724 -168 6 C-170.5 6.125 -170.5 6.125 -173 6 C-173.33 5.67 -173.66 5.34 -174 5 C-176.01964199 4.92755947 -178.04167124 4.91622812 -180.0625 4.9375 C-181.71958984 4.95103516 -181.71958984 4.95103516 -183.41015625 4.96484375 C-184.69212891 4.98224609 -184.69212891 4.98224609 -186 5 C-186 5.33 -186 5.66 -186 6 C-187.99954746 6.04254356 -190.00041636 6.04080783 -192 6 C-192.33 5.67 -192.66 5.34 -193 5 C-193 5.33 -193 5.66 -193 6 C-206.33333333 6 -219.66666667 6 -233 6 C-233 5.67 -233 5.34 -233 5 C-234.65 4.67 -236.3 4.34 -238 4 C-238.33 4.66 -238.66 5.32 -239 6 C-239 5.34 -239 4.68 -239 4 C-243.34184202 4.18464366 -243.34184202 4.18464366 -247 6 C-248.45667689 6.07254367 -249.9166725 6.08373778 -251.375 6.0625 C-252.56222656 6.04896484 -252.56222656 6.04896484 -253.7734375 6.03515625 C-254.50820313 6.02355469 -255.24296875 6.01195312 -256 6 C-256.99 6 -257.98 6 -259 6 C-268.66666667 6 -278.33333333 6 -288 6 C-288 5.67 -288 5.34 -288 5 C-289.98 5 -291.96 5 -294 5 C-294 5.33 -294 5.66 -294 6 C-297.63 6 -301.26 6 -305 6 C-305 5.67 -305 5.34 -305 5 C-306.60407328 4.97291433 -308.2082785 4.95356517 -309.8125 4.9375 C-310.70582031 4.92589844 -311.59914063 4.91429687 -312.51953125 4.90234375 C-315.13413791 4.88990033 -315.13413791 4.88990033 -318 6 C-319.68624496 6.06832435 -321.37501963 6.08486719 -323.0625 6.0625 C-323.94035156 6.05347656 -324.81820312 6.04445313 -325.72265625 6.03515625 C-326.47417969 6.02355469 -327.22570312 6.01195312 -328 6 C-328.66 6 -329.32 6 -330 6 C-343 6 -356 6 -369 6 C-369 5.67 -369 5.34 -369 5 C-370.65 5 -372.3 5 -374 5 C-374 5.33 -374 5.66 -374 6 C-379.94 6 -385.88 6 -392 6 C-392 5.34 -392 4.68 -392 4 C-396.62 4 -401.24 4 -406 4 C-406 4.66 -406 5.32 -406 6 C-406.99 5.67 -407.98 5.34 -409 5 C-411.38259618 4.90409539 -413.76781907 4.86925727 -416.15234375 4.8671875 C-416.84888565 4.86623077 -417.54542755 4.86527405 -418.26307678 4.86428833 C-419.73487437 4.8636085 -421.20667498 4.86544905 -422.6784668 4.86962891 C-424.92568745 4.87497191 -427.1727075 4.86968147 -429.41992188 4.86328125 C-430.85156294 4.86394222 -432.28320388 4.86522379 -433.71484375 4.8671875 C-435.66571899 4.86887939 -435.66571899 4.86887939 -437.65600586 4.87060547 C-440.34922899 4.97481867 -442.44033267 5.28012888 -445 6 C-446.34224535 5.7045913 -447.67488739 5.3646443 -449 5 C-451.24707241 4.7801777 -453.49771238 4.59516013 -455.75 4.4375 C-456.92046875 4.35371094 -458.0909375 4.26992188 -459.296875 4.18359375 C-460.18890625 4.12300781 -461.0809375 4.06242188 -462 4 C-462 3.67 -462 3.34 -462 3 C-425.69400594 2.80022961 -389.38793614 2.61717011 -353.0817908 2.44725752 C-351.00534828 2.43752507 -348.92890598 2.42774722 -346.85246372 2.41795731 C-226.42158091 1.85066899 -226.42158091 1.85066899 -175.8984375 2.19140625 C-174.63707773 2.19990667 -174.63707773 2.19990667 -173.35023594 2.20857882 C-156.8298495 2.3217975 -140.30999244 2.47471947 -123.79025602 2.65905845 C-99.87231349 2.9250008 -75.96208502 3.12222595 -52.04387283 2.76972961 C-49.7620459 2.73653904 -47.4801574 2.70727324 -45.19822311 2.68254089 C-33.12889442 2.54189675 -21.39923601 1.94841271 -9.4803257 -0.05731964 C-8.66974394 -0.19240685 -7.85916218 -0.32749405 -7.02401733 -0.4666748 C-6.31612753 -0.59302055 -5.60823772 -0.7193663 -4.87889671 -0.84954071 C-3 -1 -3 -1 0 0 Z M-326 4 C-326 4.33 -326 4.66 -326 5 C-323.69 5 -321.38 5 -319 5 C-319 4.67 -319 4.34 -319 4 C-321.31 4 -323.62 4 -326 4 Z M-276 4 C-272 5 -272 5 -272 5 Z M-220 4 C-220 4.33 -220 4.66 -220 5 C-218.35 5 -216.7 5 -215 5 C-215 4.67 -215 4.34 -215 4 C-216.65 4 -218.3 4 -220 4 Z M-84 4 C-80 5 -80 5 -80 5 Z M-77 4 C-77 4.33 -77 4.66 -77 5 C-75.35 5 -73.7 5 -72 5 C-72 4.67 -72 4.34 -72 4 C-73.65 4 -75.3 4 -77 4 Z M-68 4 C-64 5 -64 5 -64 5 Z M-53 4 C-53 4.33 -53 4.66 -53 5 C-51.35 5 -49.7 5 -48 5 C-48 4.67 -48 4.34 -48 4 C-49.65 4 -51.3 4 -53 4 Z M-40 4 C-40 4.33 -40 4.66 -40 5 C-37.36 5 -34.72 5 -32 5 C-32 4.67 -32 4.34 -32 4 C-34.64 4 -37.28 4 -40 4 Z " fill="#3D87F1" transform="translate(752,849)"/>
<path d="M0 0 C0.99 0.495 0.99 0.495 2 1 C2.99 3.97 2.99 3.97 4 7 C-33.95 7 -71.9 7 -111 7 C-110.67 5.68 -110.34 4.36 -110 3 C-109.67 3.66 -109.34 4.32 -109 5 C-72.7 5 -36.4 5 1 5 C0.505 2.525 0.505 2.525 0 0 Z " fill="#327DF4" transform="translate(567,530)"/>
<path d="M0 0 C0.33 0 0.66 0 1 0 C1.125 2.875 1.125 2.875 1 6 C0.34 6.66 -0.32 7.32 -1 8 C-1.71408334 9.98356483 -2.38617742 11.98315437 -3 14 C-4.37095624 10.30962722 -3.60010967 8.29116165 -2.0625 4.75 C-1.68222656 3.85796875 -1.30195313 2.9659375 -0.91015625 2.046875 C-0.60980469 1.37140625 -0.30945313 0.6959375 0 0 Z " fill="#3281F6" transform="translate(424,632)"/>
<path d="M0 0 C0.33 0 0.66 0 1 0 C2.32286246 4.96073422 2.08893197 9.91111512 2 15 C-0.19219402 12.63310671 -0.9871902 11.48272731 -1.07421875 8.203125 C-0.88279297 6.74132812 -0.88279297 6.74132812 -0.6875 5.25 C-0.50767578 3.77273438 -0.50767578 3.77273438 -0.32421875 2.265625 C-0.21722656 1.51796875 -0.11023438 0.7703125 0 0 Z " fill="#3581F3" transform="translate(185,741)"/>
<path d="M0 0 C0.33 0 0.66 0 1 0 C1 4.29 1 8.58 1 13 C0.67 13 0.34 13 0 13 C0 8.71 0 4.42 0 0 Z " fill="#418DF6" transform="translate(839,520)"/>
<path d="M0 0 C0.33 0 0.66 0 1 0 C1 3.96 1 7.92 1 12 C0.67 12 0.34 12 0 12 C0 8.04 0 4.08 0 0 Z " fill="#428DF5" transform="translate(839,728)"/>
<path d="M0 0 C0.33 0 0.66 0 1 0 C1 3.63 1 7.26 1 11 C0.67 11 0.34 11 0 11 C0 7.37 0 3.74 0 0 Z " fill="#418CF5" transform="translate(839,329)"/>
<path d="M0 0 C0.33 0 0.66 0 1 0 C1 2.97 1 5.94 1 9 C0.67 9 0.34 9 0 9 C0 6.03 0 3.06 0 0 Z " fill="#418DF6" transform="translate(839,581)"/>
<path d="M0 0 C2.31 0 4.62 0 7 0 C7 0.33 7 0.66 7 1 C4.69 1 2.38 1 0 1 C0 0.67 0 0.34 0 0 Z " fill="#438BF2" transform="translate(322,854)"/>
<path d="M0 0 C0.33 0 0.66 0 1 0 C1 2.31 1 4.62 1 7 C0.67 7 0.34 7 0 7 C0 4.69 0 2.38 0 0 Z " fill="#408CF6" transform="translate(839,663)"/>
<path d="M0 0 C0.33 0 0.66 0 1 0 C1 2.31 1 4.62 1 7 C0.67 7 0.34 7 0 7 C0 4.69 0 2.38 0 0 Z " fill="#418DF7" transform="translate(839,648)"/>
<path d="M0 0 C0.33 0 0.66 0 1 0 C1 2.31 1 4.62 1 7 C0.67 7 0.34 7 0 7 C0 4.69 0 2.38 0 0 Z " fill="#418DF6" transform="translate(839,616)"/>
<path d="M0 0 C0.33 0 0.66 0 1 0 C1 2.31 1 4.62 1 7 C0.67 7 0.34 7 0 7 C0 4.69 0 2.38 0 0 Z " fill="#418EF6" transform="translate(839,560)"/>
<path d="M0 0 C0.33 0 0.66 0 1 0 C1 2.31 1 4.62 1 7 C0.67 7 0.34 7 0 7 C0 4.69 0 2.38 0 0 Z " fill="#418EF7" transform="translate(839,536)"/>
<path d="M0 0 C0.33 0 0.66 0 1 0 C1 2.31 1 4.62 1 7 C0.67 7 0.34 7 0 7 C0 4.69 0 2.38 0 0 Z " fill="#418EF7" transform="translate(839,480)"/>
<path d="M0 0 C0.33 0 0.66 0 1 0 C1 2.31 1 4.62 1 7 C0.67 7 0.34 7 0 7 C0 4.69 0 2.38 0 0 Z " fill="#408DF6" transform="translate(839,464)"/>
<path d="M0 0 C0.33 0 0.66 0 1 0 C1 2.31 1 4.62 1 7 C0.67 7 0.34 7 0 7 C0 4.69 0 2.38 0 0 Z " fill="#428DF5" transform="translate(839,456)"/>
<path d="M0 0 C0.33 0 0.66 0 1 0 C1 2.31 1 4.62 1 7 C0.67 7 0.34 7 0 7 C0 4.69 0 2.38 0 0 Z " fill="#418DF5" transform="translate(839,416)"/>
<path d="M0 0 C0.33 0 0.66 0 1 0 C1 2.31 1 4.62 1 7 C0.67 7 0.34 7 0 7 C0 4.69 0 2.38 0 0 Z " fill="#418DF5" transform="translate(839,384)"/>
<path d="M0 0 C0.33 0 0.66 0 1 0 C1 2.31 1 4.62 1 7 C0.67 7 0.34 7 0 7 C0 4.69 0 2.38 0 0 Z " fill="#428DF6" transform="translate(839,352)"/>
<path d="M0 0 C1.98 0 3.96 0 6 0 C6 0.33 6 0.66 6 1 C4.02 1 2.04 1 0 1 C0 0.67 0 0.34 0 0 Z " fill="#438BF2" transform="translate(568,854)"/>
<path d="M0 0 C0.33 0 0.66 0 1 0 C1 1.98 1 3.96 1 6 C0.67 6 0.34 6 0 6 C0 4.02 0 2.04 0 0 Z " fill="#418BF5" transform="translate(839,704)"/>
<path d="M0 0 C0.33 0 0.66 0 1 0 C1 1.98 1 3.96 1 6 C0.67 6 0.34 6 0 6 C0 4.02 0 2.04 0 0 Z " fill="#418DF5" transform="translate(839,688)"/>
<path d="M0 0 C1.98 0 3.96 0 6 0 C6 0.33 6 0.66 6 1 C4.02 1 2.04 1 0 1 C0 0.67 0 0.34 0 0 Z " fill="#4593F9" transform="translate(690,689)"/>
<path d="M0 0 C1.98 0 3.96 0 6 0 C6 0.33 6 0.66 6 1 C4.02 1 2.04 1 0 1 C0 0.67 0 0.34 0 0 Z " fill="#4793F9" transform="translate(386,689)"/>
<path d="M0 0 C0.33 0 0.66 0 1 0 C1 1.98 1 3.96 1 6 C0.67 6 0.34 6 0 6 C0 4.02 0 2.04 0 0 Z " fill="#418DF5" transform="translate(839,672)"/>
<path d="M0 0 C0.33 0 0.66 0 1 0 C1 1.98 1 3.96 1 6 C0.67 6 0.34 6 0 6 C0 4.02 0 2.04 0 0 Z " fill="#418CF7" transform="translate(839,568)"/>
<path d="M0 0 C0.33 0 0.66 0 1 0 C1 1.98 1 3.96 1 6 C0.67 6 0.34 6 0 6 C0 4.02 0 2.04 0 0 Z " fill="#418DF6" transform="translate(839,512)"/>
<path d="M0 0 C0.33 0 0.66 0 1 0 C1 1.98 1 3.96 1 6 C0.67 6 0.34 6 0 6 C0 4.02 0 2.04 0 0 Z " fill="#418DF7" transform="translate(839,488)"/>
<path d="M0 0 C0.33 0 0.66 0 1 0 C1 1.98 1 3.96 1 6 C0.67 6 0.34 6 0 6 C0 4.02 0 2.04 0 0 Z " fill="#408DF6" transform="translate(839,472)"/>
<path d="M0 0 C0.33 0 0.66 0 1 0 C1 1.98 1 3.96 1 6 C0.67 6 0.34 6 0 6 C0 4.02 0 2.04 0 0 Z " fill="#418DF6" transform="translate(839,440)"/>
<path d="M0 0 C0.33 0 0.66 0 1 0 C1 1.98 1 3.96 1 6 C0.67 6 0.34 6 0 6 C0 4.02 0 2.04 0 0 Z " fill="#418DF6" transform="translate(839,432)"/>
<path d="M0 0 C0.33 0 0.66 0 1 0 C1 1.98 1 3.96 1 6 C0.67 6 0.34 6 0 6 C0 4.02 0 2.04 0 0 Z " fill="#418DF6" transform="translate(839,424)"/>
<path d="M0 0 C0.33 0 0.66 0 1 0 C1 1.98 1 3.96 1 6 C0.67 6 0.34 6 0 6 C0 4.02 0 2.04 0 0 Z " fill="#428DF6" transform="translate(839,360)"/>
<path d="M0 0 C0.33 0 0.66 0 1 0 C1 1.98 1 3.96 1 6 C0.67 6 0.34 6 0 6 C0 4.02 0 2.04 0 0 Z " fill="#438DF4" transform="translate(839,296)"/>
<path d="M0 0 C1.65 0 3.3 0 5 0 C5 0.33 5 0.66 5 1 C3.35 1 1.7 1 0 1 C0 0.67 0 0.34 0 0 Z " fill="#438BF2" transform="translate(336,854)"/>
<path d="M0 0 C0.99 0.33 1.98 0.66 3 1 C2.67 1.66 2.34 2.32 2 3 C1.34 2.01 0.68 1.02 0 0 Z " fill="#488DEE" transform="translate(224,826)"/>
<path d="M0 0 C1.65 0 3.3 0 5 0 C5 0.33 5 0.66 5 1 C3.35 1 1.7 1 0 1 C0 0.67 0 0.34 0 0 Z " fill="#4794F7" transform="translate(546,601)"/>
<path d="M0 0 C0.33 0 0.66 0 1 0 C1 1.65 1 3.3 1 5 C0.67 5 0.34 5 0 5 C0 3.35 0 1.7 0 0 Z " fill="#428EF6" transform="translate(839,505)"/>
<path d="M0 0 C0.33 0 0.66 0 1 0 C1 1.65 1 3.3 1 5 C0.67 5 0.34 5 0 5 C0 3.35 0 1.7 0 0 Z " fill="#428EF7" transform="translate(839,497)"/>
<path d="M0 0 C0.99 0.495 0.99 0.495 2 1 C1.67 1.99 1.34 2.98 1 4 C0.67 2.68 0.34 1.36 0 0 Z " fill="#438FFA" transform="translate(618,483)"/>
<path d="M0 0 C0.33 0 0.66 0 1 0 C1 1.65 1 3.3 1 5 C0.67 5 0.34 5 0 5 C0 3.35 0 1.7 0 0 Z " fill="#418CF6" transform="translate(839,400)"/>
<path d="M0 0 C0.33 0 0.66 0 1 0 C1 1.65 1 3.3 1 5 C0.67 5 0.34 5 0 5 C0 3.35 0 1.7 0 0 Z " fill="#428DF5" transform="translate(839,369)"/>
<path d="M0 0 C0.33 0 0.66 0 1 0 C1 1.65 1 3.3 1 5 C0.67 5 0.34 5 0 5 C0 3.35 0 1.7 0 0 Z " fill="#438DF5" transform="translate(839,313)"/>
<path d="M0 0 C4 1 4 1 4 1 Z " fill="#4289F1" transform="translate(586,854)"/>
<path d="M0 0 C4 1 4 1 4 1 Z " fill="#428BF2" transform="translate(442,854)"/>
<path d="M0 0 C4 1 4 1 4 1 Z " fill="#438BF2" transform="translate(347,854)"/>
<path d="M0 0 C4 1 4 1 4 1 Z " fill="#4794F9" transform="translate(682,689)"/>
<path d="M0 0 C4 1 4 1 4 1 Z " fill="#4895F9" transform="translate(372,689)"/>
<path d="M0 0 C4 1 4 1 4 1 Z " fill="#4794F8" transform="translate(365,689)"/>
<path d="M0 0 C1 4 1 4 1 4 Z " fill="#408CF5" transform="translate(839,680)"/>
<path d="M0 0 C4 1 4 1 4 1 Z " fill="#4895F9" transform="translate(562,601)"/>
<path d="M0 0 C4 1 4 1 4 1 Z " fill="#4A95F7" transform="translate(530,601)"/>
<path d="M0 0 C1 4 1 4 1 4 Z " fill="#418CF5" transform="translate(839,576)"/>
<path d="M0 0 C1 4 1 4 1 4 Z " fill="#418EF6" transform="translate(839,544)"/>
<path d="M0 0 C1 4 1 4 1 4 Z " fill="#418DF5" transform="translate(839,448)"/>
<path d="M0 0 C1 4 1 4 1 4 Z " fill="#418DF6" transform="translate(839,376)"/>
<path d="M0 0 C0.66 0.33 1.32 0.66 2 1 C1.01 1 0.02 1 -1 1 C-0.67 0.67 -0.34 0.34 0 0 Z " fill="#4490FB" transform="translate(577,376)"/>
<path d="M0 0 C3 1 3 1 3 1 Z " fill="#448BF0" transform="translate(723,854)"/>
<path d="M0 0 C3 1 3 1 3 1 Z " fill="#438BF1" transform="translate(643,854)"/>
<path d="M0 0 C3 1 3 1 3 1 Z " fill="#438CF3" transform="translate(631,854)"/>
<path d="M0 0 C3 1 3 1 3 1 Z " fill="#4289F1" transform="translate(515,854)"/>
<path d="M0 0 C3 1 3 1 3 1 Z " fill="#438BF1" transform="translate(438,854)"/>
<path d="M0 0 C3 1 3 1 3 1 Z " fill="#428CF2" transform="translate(379,854)"/>
<path d="M0 0 C3 1 3 1 3 1 Z " fill="#438CF2" transform="translate(354,854)"/>
<path d="M0 0 C3 1 3 1 3 1 Z " fill="#438BF1" transform="translate(331,854)"/>
<path d="M0 0 C3 1 3 1 3 1 Z " fill="#448CF2" transform="translate(314,854)"/>
<path d="M0 0 C3 1 3 1 3 1 Z " fill="#468BEF" transform="translate(291,854)"/>
<path d="M0 0 C3 1 3 1 3 1 Z " fill="#478CF0" transform="translate(737,853)"/>
<path d="M0 0 C3 1 3 1 3 1 Z " fill="#488DF0" transform="translate(281,853)"/>
<path d="M0 0 C3 1 3 1 3 1 Z " fill="#4995F8" transform="translate(678,689)"/>
<path d="M0 0 C3 1 3 1 3 1 Z " fill="#4695FA" transform="translate(674,689)"/>
<path d="M0 0 C3 1 3 1 3 1 Z " fill="#4693F8" transform="translate(668,689)"/>
<path d="M0 0 C3 1 3 1 3 1 Z " fill="#4894F9" transform="translate(660,689)"/>
<path d="M0 0 C3 1 3 1 3 1 Z " fill="#4795F9" transform="translate(644,689)"/>
<path d="M0 0 C3 1 3 1 3 1 Z " fill="#4995F9" transform="translate(630,689)"/>
<path d="M0 0 C3 1 3 1 3 1 Z " fill="#4795F9" transform="translate(356,689)"/>
<path d="M0 0 C3 1 3 1 3 1 Z " fill="#4795F9" transform="translate(346,689)"/>
<path d="M0 0 C3 1 3 1 3 1 Z " fill="#4794F8" transform="translate(453,601)"/>
<path d="M0 0 C0.99 0.495 0.99 0.495 2 1 C1.01 1.495 1.01 1.495 0 2 C0 1.34 0 0.68 0 0 Z " fill="#428EFB" transform="translate(380,558)"/>
<path d="M0 0 C0.66 0 1.32 0 2 0 C1.67 0.66 1.34 1.32 1 2 C0.67 1.34 0.34 0.68 0 0 Z " fill="#4490FB" transform="translate(633,525)"/>
<path d="" fill="#4391FB" transform="translate(0,0)"/>
<path d="M0 0 C0.33 0.66 0.66 1.32 1 2 C0.34 1.67 -0.32 1.34 -1 1 C-0.67 0.67 -0.34 0.34 0 0 Z " fill="#4390FB" transform="translate(421,445)"/>
<path d="" fill="#4391FB" transform="translate(0,0)"/>
<path d="" fill="#428DF5" transform="translate(0,0)"/>
<path d="" fill="#428DF5" transform="translate(0,0)"/>
<path d="" fill="#448DF3" transform="translate(0,0)"/>
<path d="M0 0 C2 1 2 1 2 1 Z " fill="#468CEF" transform="translate(731,854)"/>
<path d="M0 0 C2 1 2 1 2 1 Z " fill="#418AF1" transform="translate(507,854)"/>
<path d="M0 0 C2 1 2 1 2 1 Z " fill="#438AF1" transform="translate(459,854)"/>
<path d="M0 0 C2 1 2 1 2 1 Z " fill="#478EF0" transform="translate(249,843)"/>
<path d="M0 0 C2 1 2 1 2 1 Z " fill="#498CF0" transform="translate(200,801)"/>
<path d="" fill="#478EF0" transform="translate(0,0)"/>
<path d="" fill="#458CEF" transform="translate(0,0)"/>
<path d="" fill="#488FF2" transform="translate(0,0)"/>
<path d="M0 0 C2 1 2 1 2 1 Z " fill="#4895F9" transform="translate(687,689)"/>
<path d="M0 0 C2 1 2 1 2 1 Z " fill="#4995F9" transform="translate(639,689)"/>
<path d="M0 0 C2 1 2 1 2 1 Z " fill="#4A96F9" transform="translate(636,689)"/>
<path d="" fill="#4591F9" transform="translate(0,0)"/>
<path d="M0 0 C2 1 2 1 2 1 Z " fill="#4693F9" transform="translate(340,689)"/>
<path d="" fill="#418DF6" transform="translate(0,0)"/>
<path d="" fill="#4290FD" transform="translate(0,0)"/>
<path d="" fill="#4391FC" transform="translate(0,0)"/>
<path d="" fill="#438EFB" transform="translate(0,0)"/>
<path d="" fill="#438EFC" transform="translate(0,0)"/>
<path d="" fill="#438FFB" transform="translate(0,0)"/>
<path d="M0 0 C2 1 2 1 2 1 Z " fill="#438FFA" transform="translate(675,637)"/>
<path d="" fill="#438FFB" transform="translate(0,0)"/>
<path d="M0 0 C2 1 2 1 2 1 Z " fill="#4895F8" transform="translate(556,601)"/>
<path d="M0 0 C2 1 2 1 2 1 Z " fill="#4794F8" transform="translate(524,601)"/>
<path d="M0 0 C2 1 2 1 2 1 Z " fill="#4994F7" transform="translate(484,601)"/>
<path d="" fill="#418EFA" transform="translate(0,0)"/>
<path d="" fill="#408DF6" transform="translate(0,0)"/>
<path d="" fill="#428DF5" transform="translate(0,0)"/>
<path d="" fill="#438DFC" transform="translate(0,0)"/>
<path d="" fill="#448FF8" transform="translate(0,0)"/>
<path d="" fill="#438FFA" transform="translate(0,0)"/>
<path d="" fill="#4592FA" transform="translate(0,0)"/>
<path d="" fill="#438FFB" transform="translate(0,0)"/>
<path d="" fill="#448FF9" transform="translate(0,0)"/>
<path d="" fill="#438FFB" transform="translate(0,0)"/>
<path d="" fill="#428FFC" transform="translate(0,0)"/>
<path d="" fill="#4390FA" transform="translate(0,0)"/>
<path d="" fill="#4290FC" transform="translate(0,0)"/>
<path d="" fill="#448FF3" transform="translate(0,0)"/>
<path d="" fill="#488FF2" transform="translate(0,0)"/>
<path d="" fill="#445062" transform="translate(0,0)"/>
<path d="" fill="#4F6A93" transform="translate(0,0)"/>
<path d="" fill="#4B8BEC" transform="translate(0,0)"/>
<path d="" fill="#438EF4" transform="translate(0,0)"/>
<path d="" fill="#438CF4" transform="translate(0,0)"/>
<path d="" fill="#438BF1" transform="translate(0,0)"/>
<path d="" fill="#438DF3" transform="translate(0,0)"/>
<path d="" fill="#448DF1" transform="translate(0,0)"/>
<path d="" fill="#448CF1" transform="translate(0,0)"/>
<path d="" fill="#448DF2" transform="translate(0,0)"/>
<path d="" fill="#468AEE" transform="translate(0,0)"/>
<path d="" fill="#4C8DEE" transform="translate(0,0)"/>
<path d="" fill="#488CEE" transform="translate(0,0)"/>
<path d="" fill="#488EF0" transform="translate(0,0)"/>
<path d="" fill="#4B8EF1" transform="translate(0,0)"/>
<path d="" fill="#478FF2" transform="translate(0,0)"/>
<path d="" fill="#458DF2" transform="translate(0,0)"/>
<path d="" fill="#468BF0" transform="translate(0,0)"/>
<path d="" fill="#468EF2" transform="translate(0,0)"/>
<path d="" fill="#4A8DEC" transform="translate(0,0)"/>
<path d="" fill="#498BF0" transform="translate(0,0)"/>
<path d="" fill="#488DEF" transform="translate(0,0)"/>
<path d="" fill="#4888EB" transform="translate(0,0)"/>
<path d="" fill="#488DEF" transform="translate(0,0)"/>
<path d="" fill="#488FEF" transform="translate(0,0)"/>
<path d="" fill="#4989E9" transform="translate(0,0)"/>
<path d="" fill="#468FF0" transform="translate(0,0)"/>
<path d="" fill="#4A8EF0" transform="translate(0,0)"/>
<path d="" fill="#4B8EEB" transform="translate(0,0)"/>
<path d="" fill="#468DF1" transform="translate(0,0)"/>
<path d="" fill="#498CEC" transform="translate(0,0)"/>
<path d="" fill="#488DF1" transform="translate(0,0)"/>
<path d="" fill="#478BEE" transform="translate(0,0)"/>
<path d="" fill="#498DF1" transform="translate(0,0)"/>
<path d="" fill="#488EF2" transform="translate(0,0)"/>
<path d="" fill="#4790F1" transform="translate(0,0)"/>
<path d="" fill="#468DF3" transform="translate(0,0)"/>
<path d="" fill="#448EF2" transform="translate(0,0)"/>
<path d="" fill="#4796FA" transform="translate(0,0)"/>
<path d="" fill="#4791F8" transform="translate(0,0)"/>
<path d="" fill="#4894FA" transform="translate(0,0)"/>
<path d="" fill="#4A96FB" transform="translate(0,0)"/>
<path d="" fill="#4894F7" transform="translate(0,0)"/>
<path d="" fill="#4896FB" transform="translate(0,0)"/>
<path d="" fill="#4995FB" transform="translate(0,0)"/>
<path d="" fill="#4792F8" transform="translate(0,0)"/>
<path d="" fill="#4994FA" transform="translate(0,0)"/>
<path d="" fill="#4695FA" transform="translate(0,0)"/>
<path d="" fill="#4593FA" transform="translate(0,0)"/>
<path d="" fill="#4793F9" transform="translate(0,0)"/>
<path d="" fill="#4692F7" transform="translate(0,0)"/>
<path d="" fill="#4695FA" transform="translate(0,0)"/>
<path d="" fill="#4794F9" transform="translate(0,0)"/>
<path d="" fill="#4996FA" transform="translate(0,0)"/>
<path d="" fill="#4695FA" transform="translate(0,0)"/>
<path d="" fill="#4894FC" transform="translate(0,0)"/>
<path d="" fill="#4793FB" transform="translate(0,0)"/>
<path d="" fill="#4796FA" transform="translate(0,0)"/>
<path d="" fill="#418EFA" transform="translate(0,0)"/>
<path d="" fill="#4391FE" transform="translate(0,0)"/>
<path d="" fill="#4691FC" transform="translate(0,0)"/>
<path d="" fill="#4290F9" transform="translate(0,0)"/>
<path d="" fill="#4691FA" transform="translate(0,0)"/>
<path d="" fill="#4491FE" transform="translate(0,0)"/>
<path d="" fill="#4392FA" transform="translate(0,0)"/>
<path d="" fill="#4491FC" transform="translate(0,0)"/>
<path d="" fill="#4794FD" transform="translate(0,0)"/>
<path d="" fill="#458FFC" transform="translate(0,0)"/>
<path d="" fill="#4490F8" transform="translate(0,0)"/>
<path d="" fill="#4690FA" transform="translate(0,0)"/>
<path d="" fill="#4591F8" transform="translate(0,0)"/>
<path d="" fill="#4492FB" transform="translate(0,0)"/>
<path d="" fill="#4490FB" transform="translate(0,0)"/>
<path d="" fill="#478FF9" transform="translate(0,0)"/>
<path d="" fill="#4491FD" transform="translate(0,0)"/>
<path d="" fill="#468FF9" transform="translate(0,0)"/>
<path d="" fill="#428FF9" transform="translate(0,0)"/>
<path d="" fill="#4692FA" transform="translate(0,0)"/>
<path d="" fill="#4291F9" transform="translate(0,0)"/>
<path d="" fill="#4293FB" transform="translate(0,0)"/>
<path d="" fill="#4A96F9" transform="translate(0,0)"/>
<path d="" fill="#4893F6" transform="translate(0,0)"/>
<path d="" fill="#4893F7" transform="translate(0,0)"/>
<path d="" fill="#4894F9" transform="translate(0,0)"/>
<path d="" fill="#4995F5" transform="translate(0,0)"/>
<path d="" fill="#4A96FA" transform="translate(0,0)"/>
<path d="" fill="#4A95F7" transform="translate(0,0)"/>
<path d="" fill="#4996F7" transform="translate(0,0)"/>
<path d="" fill="#4A94F7" transform="translate(0,0)"/>
<path d="" fill="#4993F8" transform="translate(0,0)"/>
<path d="" fill="#4A95F7" transform="translate(0,0)"/>
<path d="" fill="#4994FA" transform="translate(0,0)"/>
<path d="" fill="#4A94F8" transform="translate(0,0)"/>
<path d="" fill="#4A94F6" transform="translate(0,0)"/>
<path d="" fill="#4893F7" transform="translate(0,0)"/>
<path d="" fill="#4A96F8" transform="translate(0,0)"/>
<path d="" fill="#4A93F8" transform="translate(0,0)"/>
<path d="" fill="#4794F8" transform="translate(0,0)"/>
<path d="" fill="#4893F8" transform="translate(0,0)"/>
<path d="" fill="#4593FA" transform="translate(0,0)"/>
<path d="" fill="#4893F6" transform="translate(0,0)"/>
<path d="" fill="#4A95F7" transform="translate(0,0)"/>
<path d="" fill="#4795F9" transform="translate(0,0)"/>
<path d="" fill="#4795F7" transform="translate(0,0)"/>
<path d="" fill="#4A91F9" transform="translate(0,0)"/>
<path d="" fill="#408DF7" transform="translate(0,0)"/>
<path d="" fill="#4392FA" transform="translate(0,0)"/>
<path d="" fill="#4390FC" transform="translate(0,0)"/>
<path d="" fill="#418CF5" transform="translate(0,0)"/>
<path d="" fill="#4493FD" transform="translate(0,0)"/>
<path d="" fill="#458FF8" transform="translate(0,0)"/>
<path d="" fill="#448EF8" transform="translate(0,0)"/>
<path d="" fill="#4391FB" transform="translate(0,0)"/>
<path d="" fill="#4490FB" transform="translate(0,0)"/>
<path d="" fill="#4591FC" transform="translate(0,0)"/>
<path d="" fill="#428EF7" transform="translate(0,0)"/>
<path d="" fill="#4691FA" transform="translate(0,0)"/>
<path d="" fill="#418CFA" transform="translate(0,0)"/>
<path d="" fill="#438DFA" transform="translate(0,0)"/>
<path d="" fill="#4591FA" transform="translate(0,0)"/>
<path d="" fill="#4992FB" transform="translate(0,0)"/>
<path d="" fill="#498FF9" transform="translate(0,0)"/>
<path d="" fill="#468EFB" transform="translate(0,0)"/>
<path d="" fill="#4491FA" transform="translate(0,0)"/>
<path d="" fill="#4690FA" transform="translate(0,0)"/>
<path d="" fill="#4490FB" transform="translate(0,0)"/>
<path d="" fill="#4691FA" transform="translate(0,0)"/>
<path d="" fill="#438FFA" transform="translate(0,0)"/>
<path d="" fill="#4491FD" transform="translate(0,0)"/>
<path d="" fill="#4391FC" transform="translate(0,0)"/>
<path d="" fill="#4390FB" transform="translate(0,0)"/>
<path d="" fill="#4390FB" transform="translate(0,0)"/>
<path d="" fill="#4692FC" transform="translate(0,0)"/>
<path d="" fill="#458FFB" transform="translate(0,0)"/>
<path d="" fill="#4392F9" transform="translate(0,0)"/>
<path d="" fill="#4492FE" transform="translate(0,0)"/>
<path d="" fill="#428FFA" transform="translate(0,0)"/>
<path d="" fill="#428EFB" transform="translate(0,0)"/>
<path d="" fill="#428FF8" transform="translate(0,0)"/>
<path d="" fill="#4490FA" transform="translate(0,0)"/>
<path d="" fill="#4390F8" transform="translate(0,0)"/>
<path d="" fill="#4492FC" transform="translate(0,0)"/>
<path d="" fill="#438EF9" transform="translate(0,0)"/>
<path d="" fill="#4691FC" transform="translate(0,0)"/>
<path d="" fill="#4491FB" transform="translate(0,0)"/>
<path d="" fill="#468EFB" transform="translate(0,0)"/>
<path d="" fill="#4490FB" transform="translate(0,0)"/>
<path d="" fill="#4492FA" transform="translate(0,0)"/>
<path d="" fill="#4390FB" transform="translate(0,0)"/>
<path d="" fill="#4491FC" transform="translate(0,0)"/>
<path d="" fill="#4291FA" transform="translate(0,0)"/>
<path d="" fill="#4590F9" transform="translate(0,0)"/>
<path d="" fill="#438EF9" transform="translate(0,0)"/>
<path d="" fill="#4590FB" transform="translate(0,0)"/>
<path d="" fill="#438FF8" transform="translate(0,0)"/>
<path d="" fill="#4691FA" transform="translate(0,0)"/>
<path d="" fill="#438FFC" transform="translate(0,0)"/>
<path d="" fill="#4590FA" transform="translate(0,0)"/>
<path d="" fill="#428FFB" transform="translate(0,0)"/>
<path d="" fill="#4290FB" transform="translate(0,0)"/>
<path d="" fill="#4490FA" transform="translate(0,0)"/>
<path d="" fill="#4790FA" transform="translate(0,0)"/>
<path d="" fill="#4791FB" transform="translate(0,0)"/>
<path d="" fill="#4691F9" transform="translate(0,0)"/>
<path d="" fill="#4290FB" transform="translate(0,0)"/>
<path d="" fill="#4291FB" transform="translate(0,0)"/>
<path d="" fill="#458FFC" transform="translate(0,0)"/>
<path d="" fill="#4591FC" transform="translate(0,0)"/>
<path d="" fill="#4290FC" transform="translate(0,0)"/>
<path d="" fill="#4391FA" transform="translate(0,0)"/>
<path d="" fill="#4490FA" transform="translate(0,0)"/>
<path d="" fill="#458FF9" transform="translate(0,0)"/>
<path d="" fill="#438DF6" transform="translate(0,0)"/>
<path d="" fill="#4290F9" transform="translate(0,0)"/>
<path d="" fill="#4490FA" transform="translate(0,0)"/>
<path d="" fill="#4493FA" transform="translate(0,0)"/>
<path d="" fill="#428DF8" transform="translate(0,0)"/>
<path d="" fill="#4390FA" transform="translate(0,0)"/>
<path d="" fill="#448FFC" transform="translate(0,0)"/>
<path d="" fill="#4391FE" transform="translate(0,0)"/>
<path d="" fill="#4290FA" transform="translate(0,0)"/>
<path d="" fill="#4391FA" transform="translate(0,0)"/>
<path d="" fill="#428DF8" transform="translate(0,0)"/>
<path d="" fill="#428CF8" transform="translate(0,0)"/>
<path d="" fill="#418FF9" transform="translate(0,0)"/>
<path d="" fill="#458EF7" transform="translate(0,0)"/>
<path d="" fill="#4290FA" transform="translate(0,0)"/>
<path d="" fill="#428EF6" transform="translate(0,0)"/>
<path d="" fill="#438EFB" transform="translate(0,0)"/>
<path d="" fill="#4592FC" transform="translate(0,0)"/>
<path d="" fill="#438FF6" transform="translate(0,0)"/>
<path d="" fill="#438FFA" transform="translate(0,0)"/>
<path d="" fill="#418EF6" transform="translate(0,0)"/>
<path d="" fill="#4591FB" transform="translate(0,0)"/>
<path d="" fill="#428EF2" transform="translate(0,0)"/>
<path d="" fill="#4890F4" transform="translate(0,0)"/>
<path d="" fill="#488EF2" transform="translate(0,0)"/>
<path d="" fill="#488EF0" transform="translate(0,0)"/>
<path d="" fill="#488CEE" transform="translate(0,0)"/>
<path d="" fill="#488CED" transform="translate(0,0)"/>
<path d="" fill="#468EF1" transform="translate(0,0)"/>
<path d="" fill="#488EF0" transform="translate(0,0)"/>
<path d="" fill="#478EEE" transform="translate(0,0)"/>
<path d="" fill="#4B8FF0" transform="translate(0,0)"/>
<path d="" fill="#4A8EEF" transform="translate(0,0)"/>
<path d="" fill="#488CEF" transform="translate(0,0)"/>
<path d="" fill="#498DEF" transform="translate(0,0)"/>
<path d="" fill="#4A8EF0" transform="translate(0,0)"/>
<path d="" fill="#4890F2" transform="translate(0,0)"/>
<path d="" fill="#488FF1" transform="translate(0,0)"/>
<path d="" fill="#4B92F3" transform="translate(0,0)"/>
<path d="" fill="#478FF3" transform="translate(0,0)"/>
<path d="" fill="#4990F4" transform="translate(0,0)"/>
<path d="" fill="#4790F2" transform="translate(0,0)"/>
<path d="" fill="#498FF1" transform="translate(0,0)"/>
<path d="" fill="#478FF3" transform="translate(0,0)"/>
<path d="" fill="#488FF5" transform="translate(0,0)"/>
<path d="" fill="#478FF3" transform="translate(0,0)"/>
<path d="" fill="#41464C" transform="translate(0,0)"/>
</svg>
